<svg width="143" height="188" viewBox="0 0 143 188" fill="none" xmlns="http://www.w3.org/2000/svg">
<path fill-rule="evenodd" clip-rule="evenodd" d="M102.763 71C81.2628 41.5 79.2628 17.5 89.7611 0C39.452 24.0477 26.1123 43.0517 28.4497 84.5C25.2628 81 22.955 77.0066 21.7628 73.5C21.692 73.2918 21.6218 73.0857 21.5521 72.8813C20.0131 68.3682 18.7611 64.6967 18.7611 58C18.7611 58 4.12311 74.5 0.761186 100.5C-2.60073 126.5 6.26295 143 6.26295 143C6.26295 143 17.0356 164.228 36.7628 176.5C55.4334 188.115 83.7628 187 83.7628 187C83.7628 187 123.259 188 137.761 140.5C152.263 93 127.761 65 127.761 65C127.761 65 127.526 78.0573 125.263 86C123.084 93.6467 116.761 104.5 116.761 104.5C112.969 89.8245 111.249 86.7182 107.672 80.2577C106.353 77.8765 104.783 75.0397 102.763 71ZM48.6 106H93.4C96.48 106 99 108.52 99 111.6V145.2C99 148.28 96.48 150.8 93.4 150.8H54.2L43 162L43.028 111.6C43.028 108.52 45.52 106 48.6 106ZM87.8 125.6H54.2V131.2H87.8V125.6ZM54.2 139.6H76.6V134H54.2V139.6ZM54.2 122.8H87.8V117.2H54.2V122.8Z" fill="#4E84FE"/>
</svg>